<?xml version="1.0" standalone="no"?>
			<!DOCTYPE svg PUBLIC "-//W3C//DTD SVG 1.1//EN" "http://www.w3.org/Graphics/SVG/1.1/DTD/svg11.dtd"><svg xmlns="http://www.w3.org/2000/svg" xmlns:xlink="http://www.w3.org/1999/xlink" version="1.1" fill="#FFF" width="100" height="100" viewBox="0 0 100 100" xml:space="preserve">  <path class="st0" d="M41.2,38.3c-0.1,0.2-0.2,0.4-0.2,0.6s0,0.4,0.2,0.6L35.6,45c-0.2-0.1-0.3-0.1-0.5-0.1s-0.3,0-0.5,0.1l-5.7-5.6  	c0.1-0.2,0.2-0.4,0.2-0.6c0-0.2-0.1-0.4-0.2-0.6l5.7-5.6c0.3,0.1,0.7,0.1,1,0L41.2,38.3z M65.4,32.6c-0.3,0.1-0.7,0.1-1,0l-5.7,5.6  	c0.1,0.2,0.2,0.4,0.2,0.6c0,0.2-0.1,0.4-0.2,0.6l5.7,5.6c0.2-0.1,0.3-0.1,0.5-0.1c0.2,0,0.3,0,0.5,0.1l5.7-5.6  	c-0.1-0.2-0.2-0.4-0.2-0.6c0-0.2,0.1-0.4,0.2-0.6L65.4,32.6z M34.6,30.1c0.2-0.1,0.3-0.1,0.5-0.1c0.2,0,0.3,0,0.5,0.1l5.7-5.7  	c-0.1-0.2-0.1-0.3-0.1-0.5s0-0.3,0.1-0.5l-5.7-5.7c-0.3,0.1-0.7,0.1-1,0l-5.7,5.7c0.1,0.2,0.1,0.3,0.1,0.5s0,0.3-0.1,0.5L34.6,30.1z  	 M42,37.6c0.2-0.1,0.3-0.1,0.5-0.1c0.2,0,0.3,0,0.5,0.1l5.7-5.6c-0.1-0.2-0.2-0.4-0.2-0.6c0-0.2,0-0.4,0.2-0.6L43,25.2  	c-0.3,0.2-0.7,0.2-1,0l-5.7,5.6c0.1,0.2,0.2,0.4,0.2,0.6c0,0.2,0,0.4-0.2,0.6L42,37.6z M50.5,32.6c-0.3,0.1-0.7,0.1-1,0l-5.7,5.6  	c0.1,0.2,0.2,0.4,0.2,0.6c0,0.2,0,0.4-0.2,0.6l5.6,5.6c0.2-0.1,0.3-0.1,0.5-0.1c0.2,0,0.3,0,0.5,0.1l5.6-5.6C56,39.2,56,39,56,38.8  	s0-0.4,0.2-0.6L50.5,32.6z M80.9,20.5c0,0.2,0,0.4,0,0.7v18.9c-4.1,0.3-7.4,4.2-7.4,9c0,3.6,0.9,5.3,2.9,7.3  	c-7.9-1.9-17-3.1-26.5-3.1c-9.6,0-18.6,1.1-26.5,3.1c2.1-2,2.9-3.7,2.9-7.3c0-4.8-3.3-8.7-7.4-9V21.2c0-0.3,0-0.5,0-0.7  	c0-0.2,0-0.3,0-0.5c0-6.3,13.9-11.5,31-11.5s31,5.1,31,11.5C80.9,20.2,80.9,20.3,80.9,20.5z M73.8,38.8c0-0.9-1-1.6-2-1.2l-5.7-5.6  	c0.1-0.2,0.2-0.4,0.2-0.6c0-0.2,0-0.4-0.2-0.6l5.7-5.6c0.9,0.4,1.8-0.3,1.8-1.2c0-0.9-0.9-1.6-1.8-1.2l-5.7-5.6  	c0.1-0.2,0.2-0.4,0.2-0.6c0-0.7-0.6-1.3-1.4-1.3s-1.4,0.6-1.4,1.3c0,0.2,0,0.4,0.2,0.6l-5.7,5.6c-0.3-0.2-0.7-0.2-1,0l-5.7-5.6  	c0.1-0.2,0.2-0.4,0.2-0.6c0-0.7-0.6-1.3-1.4-1.3s-1.4,0.6-1.4,1.3c0,0.2,0,0.4,0.2,0.6L43,22.7c-0.3-0.2-0.7-0.1-1,0l-5.7-5.6  	c0.1-0.2,0.2-0.4,0.2-0.6c0-0.7-0.6-1.3-1.4-1.3s-1.4,0.6-1.4,1.3c0,0.2,0.1,0.4,0.2,0.6l-5.7,5.6c-0.9-0.4-1.8,0.3-1.8,1.2  	c0,0.9,0.9,1.6,1.8,1.2l5.7,5.6c-0.1,0.2-0.2,0.4-0.2,0.6c0,0.2,0,0.4,0.2,0.6l-5.7,5.6c-1-0.4-2,0.3-2,1.2c0,0.9,1,1.6,2,1.2  	l5.7,5.6c-0.1,0.2-0.2,0.4-0.2,0.6c0,0.7,0.6,1.3,1.4,1.3s1.4-0.6,1.4-1.3c0-0.2,0-0.4-0.2-0.6l5.7-5.6c0.3,0.1,0.7,0.1,1,0l5.7,5.6  	c-0.1,0.2-0.2,0.4-0.2,0.6c0,0.7,0.6,1.3,1.4,1.3s1.4-0.6,1.4-1.3c0-0.2,0-0.4-0.2-0.6l5.7-5.6c0.3,0.1,0.7,0.1,1,0l5.7,5.6  	c-0.1,0.2-0.2,0.4-0.2,0.6c0,0.7,0.6,1.3,1.4,1.3s1.4-0.6,1.4-1.3c0-0.2,0-0.4-0.2-0.6l5.7-5.6C72.8,40.4,73.8,39.7,73.8,38.8z  	 M64.4,30.1c0.2-0.1,0.3-0.1,0.5-0.1c0.2,0,0.3,0,0.5,0.1l5.7-5.7C71,24.3,71,24.1,71,23.9c0-0.2,0-0.3,0.1-0.5l-5.7-5.7  	c-0.3,0.1-0.7,0.1-1,0l-5.7,5.7c0.1,0.2,0.1,0.3,0.1,0.5c0,0.2,0,0.3-0.1,0.5L64.4,30.1z M49.5,30.1c0.4-0.1,0.7-0.1,1,0l5.7-5.7  	c-0.1-0.2-0.1-0.3-0.1-0.5c0-0.2,0-0.3,0.1-0.5l-5.7-5.7c-0.3,0.1-0.7,0.1-1,0l-5.7,5.7c0.1,0.2,0.1,0.3,0.1,0.5s0,0.3-0.1,0.5  	L49.5,30.1z M56.9,37.6c0.2-0.1,0.3-0.1,0.5-0.1c0.2,0,0.3,0,0.5,0.1l5.7-5.6c-0.1-0.2-0.2-0.4-0.2-0.6c0-0.2,0-0.4,0.2-0.6  	l-5.7-5.6c-0.3,0.2-0.7,0.2-1,0l-5.7,5.6c0.1,0.2,0.2,0.4,0.2,0.6c0,0.2,0,0.4-0.2,0.6L56.9,37.6z M82.6,54.9c0-5.2,3.4-9.4,7.8-10  	c-3.1-1.2-6.7-2.7-6.9-2.7l-0.3-0.1C82.9,42,82.4,42,81.9,42c-3.4,0-6.2,3.3-6.2,7.3c0,3.5,0.8,4.7,3.5,7l4.5,3.5  	C83,58.4,82.6,56.7,82.6,54.9z M23.4,58.8V71h53.2V58.8c-7.9-2.1-16.9-3.3-26.6-3.3C40.3,55.5,31.2,56.7,23.4,58.8z M96.1,47.8  	c-0.2-0.2-0.5-0.3-0.7-0.5c-0.1,0-0.1-0.1-0.2-0.1c-0.9-0.4-1.9-0.7-2.9-0.7c-4.3,0-7.8,4-7.8,8.9c0,4.9,3.5,8.9,7.8,8.9  	c3.2,0,5.9-2.2,7.1-5.3c0.4-1.1,0.6-2.2,0.6-3.5C100,52.3,98.4,49.4,96.1,47.8z M16.3,59.8l4.5-3.5c2.6-2.3,3.5-3.5,3.5-7  	c0-4-2.8-7.3-6.2-7.3c-0.5,0-0.9,0.1-1.4,0.2l-0.3,0.1c-0.2,0.1-3.8,1.5-6.9,2.7c4.4,0.6,7.8,4.8,7.8,10  	C17.4,56.7,17,58.4,16.3,59.8z M0,55.9c0,1.3,0.2,2.4,0.6,3.5c1.2,3.2,3.9,5.4,7.1,5.4c4.3,0,7.8-4.1,7.8-9.1c0-5-3.5-9.1-7.8-9.1  	c-1,0-2,0.2-2.9,0.7c-0.1,0-0.2,0.1-0.2,0.1c-0.3,0.1-0.5,0.3-0.7,0.5C1.6,49.5,0,52.4,0,55.9z M23.4,87.4h53.2V73H23.4V87.4z  	 M14.2,64.8c-1.3,1.1-2.8,1.8-4.4,2.1l3,18.9c0,1.3,1,2.3,2.3,2.3H21V59.6L14.2,64.8C14.3,64.8,14.2,64.8,14.2,64.8z M85.6,64.6  	L79,59.4L79,88h5.9c1.3,0,2.3-1,2.3-2.3l3-19C88.5,66.5,87,65.8,85.6,64.6C85.7,64.7,85.7,64.7,85.6,64.6z M69.3,90.5  	c0,0.6,0.5,1,1,1h5.2c0.6,0,1-0.5,1-1l0-1.6h-7.2V90.5z M23.5,90.5c0,0.6,0.5,1,1,1h5.2c0.6,0,1-0.5,1-1v-1.6h-7.2V90.5z"/>  </svg>